<?xml version="1.0" encoding="UTF-8" standalone="no"?>
<!-- Generator: Adobe Illustrator 17.0.1, SVG Export Plug-In . SVG Version: 6.00 Build 0)  -->

<svg
   xmlns:dc="http://purl.org/dc/elements/1.1/"
   xmlns:cc="http://creativecommons.org/ns#"
   xmlns:rdf="http://www.w3.org/1999/02/22-rdf-syntax-ns#"
   xmlns:svg="http://www.w3.org/2000/svg"
   xmlns="http://www.w3.org/2000/svg"
   xmlns:xlink="http://www.w3.org/1999/xlink"
   xmlns:sodipodi="http://sodipodi.sourceforge.net/DTD/sodipodi-0.dtd"
   xmlns:inkscape="http://www.inkscape.org/namespaces/inkscape"
   version="1.1"
   x="0px"
   y="0px"
   width="86px"
   height="86px"
   viewBox="0 0 86 86"
   enable-background="new 0 0 86 86"
   xml:space="preserve"
   id="svg2"
   inkscape:version="0.91 r13725"
   sodipodi:docname="harbour-syncthing-sf.svg"
   inkscape:export-filename="/home/fuxl/workdir/harbour/syncthing-sf/icons/harbour-syncthing-sf.svg.png"
   inkscape:export-xdpi="90"
   inkscape:export-ydpi="90"><metadata
     id="metadata39"><rdf:RDF><cc:Work
         rdf:about=""><dc:format>image/svg+xml</dc:format><dc:type
           rdf:resource="http://purl.org/dc/dcmitype/StillImage" /><dc:title></dc:title><cc:license
           rdf:resource="http://creativecommons.org/licenses/by-sa/3.0/" /></cc:Work><cc:License
         rdf:about="http://creativecommons.org/licenses/by-sa/3.0/"><cc:permits
           rdf:resource="http://creativecommons.org/ns#Reproduction" /><cc:permits
           rdf:resource="http://creativecommons.org/ns#Distribution" /><cc:requires
           rdf:resource="http://creativecommons.org/ns#Notice" /><cc:requires
           rdf:resource="http://creativecommons.org/ns#Attribution" /><cc:permits
           rdf:resource="http://creativecommons.org/ns#DerivativeWorks" /><cc:requires
           rdf:resource="http://creativecommons.org/ns#ShareAlike" /></cc:License></rdf:RDF></metadata><defs
     id="defs37"><linearGradient
       gradientTransform="matrix(0,-1,1,0,-320.12306,1351.0149)"
       y2="517.05713"
       x2="1362.157"
       y1="602.01941"
       x1="1277.1947"
       gradientUnits="userSpaceOnUse"
       id="SVGID_1_"><stop
         id="stop7"
         style="stop-color:#E8CF13"
         offset="0" /><stop
         id="stop9"
         style="stop-color:#24A89E"
         offset="0.9897" /></linearGradient><linearGradient
       y2="0"
       x2="58.666"
       y1="117.332"
       x1="58.666"
       gradientUnits="userSpaceOnUse"
       id="SVGID_1_-9-7"><stop
         id="stop3449-3"
         style="stop-color:#0882C8"
         offset="0" /><stop
         id="stop3451-4"
         style="stop-color:#26B6DB"
         offset="1" /></linearGradient><linearGradient
       inkscape:collect="always"
       xlink:href="#SVGID_1_-9"
       id="linearGradient3578"
       gradientUnits="userSpaceOnUse"
       x1="58.666"
       y1="117.332"
       x2="58.666"
       y2="0"
       gradientTransform="matrix(-1,0,0,1,125.72032,-32.067799)" /><linearGradient
       inkscape:collect="always"
       xlink:href="#SVGID_1_-9"
       id="linearGradient3580"
       gradientUnits="userSpaceOnUse"
       x1="58.666"
       y1="117.332"
       x2="58.666"
       y2="0"
       gradientTransform="matrix(0.73083474,0,0,0.73083474,-130.85254,0.23050923)" /><linearGradient
       id="SVGID_1_-9"
       gradientUnits="userSpaceOnUse"
       x1="58.666"
       y1="117.332"
       x2="58.666"
       y2="0"><stop
         offset="0"
         style="stop-color:#0882C8"
         id="stop3449" /><stop
         offset="1"
         style="stop-color:#26B6DB"
         id="stop3451" /></linearGradient></defs><sodipodi:namedview
     pagecolor="#ffffff"
     bordercolor="#666666"
     borderopacity="1"
     objecttolerance="10"
     gridtolerance="10"
     guidetolerance="10"
     inkscape:pageopacity="0"
     inkscape:pageshadow="2"
     inkscape:window-width="1920"
     inkscape:window-height="1051"
     id="namedview35"
     showgrid="false"
     showguides="true"
     inkscape:guide-bbox="true"
     inkscape:snap-midpoints="false"
     inkscape:object-paths="true"
     inkscape:snap-center="true"
     inkscape:snap-object-midpoints="true"
     inkscape:zoom="3.8808651"
     inkscape:cx="-72.430057"
     inkscape:cy="47.089679"
     inkscape:window-x="0"
     inkscape:window-y="0"
     inkscape:window-maximized="1"
     inkscape:current-layer="svg2" /><g
     id="Layer_2"
     display="none" /><path
     inkscape:connector-curvature="0"
     style="fill:url(#SVGID_1_)"
     id="path11"
     d="m 196.51524,-10.131017 0,41.47 c 0,23.693 19.20801,42.9 42.90001,42.9 l 41.47,0 c 0.79,0 1.43,-0.64 1.43,-1.43 l 0,-41.47 c 0,-23.6939995 -19.208,-42.9 -42.9,-42.9 l -41.47001,0 c -0.79,0 -1.43,0.64 -1.43,1.43 z" /><g
     id="g13"
     transform="translate(196.41524,-11.661017)"><polygon
       style="fill:#ffffff"
       id="polygon15"
       points="22.928,66.704 20.279,64.055 25.207,59.128 20.279,54.201 22.928,51.551 27.855,56.479 32.78,51.551 35.432,54.201 30.504,59.128 35.432,64.055 32.78,66.704 27.855,61.777 " /></g><g
     id="g17"
     transform="translate(196.41524,-11.661017)"><polygon
       style="fill:#ffffff"
       id="polygon19"
       points="18.569,29.319 18.569,25.41 25.41,25.41 25.41,18.569 29.319,18.569 29.319,25.41 36.159,25.41 36.159,29.319 29.319,29.319 29.319,36.16 25.41,36.16 25.41,29.319 " /></g><g
     id="g21"
     transform="translate(196.41524,-11.661017)"><rect
       style="fill:#ffffff"
       id="rect23"
       height="3.9089999"
       width="15.635"
       y="25.41"
       x="51.794998" /><circle
       style="fill:#ffffff"
       id="circle25"
       r="2.4159999"
       cy="21.504999"
       cx="59.608002" /><circle
       style="fill:#ffffff"
       id="circle27"
       r="2.4159999"
       cy="33.272999"
       cx="59.608002" /></g><g
     id="g29"
     transform="translate(196.41524,-11.661017)"><path
       style="fill:#f3b344"
       inkscape:connector-curvature="0"
       id="path31"
       d="m 43.05,44.477 c 0,-0.788 0.639,-1.427 1.427,-1.427 l 39.947,0 c 0.788,0 1.427,0.639 1.427,1.427 l 0,39.947 c 0,0.788 -0.639,1.427 -1.427,1.427 l -39.947,0 c -0.788,0 -1.427,-0.639 -1.427,-1.427 l 0,-39.947 z" /></g><path
     style="fill:#ffffff"
     inkscape:connector-curvature="0"
     id="path33"
     d="m 249.18725,45.996983 0,-3.909 14.658,0 0,3.909 -14.658,0 z m 0,6.841 0,-3.909 14.658,0 0,3.909 -14.658,0 z" /><circle
     cx="-87.952538"
     cy="43.130508"
     r="42.900002"
     id="circle3453"
     style="fill:url(#linearGradient3580)" /><path
     d="m 85.900002,1.5299988 0,41.4699992 c 0,23.693 -19.20801,42.900003 -42.90001,42.900003 l -41.4699942,0 c -0.78999999,0 -1.42999999,-0.64 -1.42999999,-1.43 l 0,-41.470003 c 0,-23.694 19.20799919,-42.89999921 42.89999419,-42.89999921 l 41.47001,0 c 0.79,0 1.43,0.64000003 1.43,1.43000001 z"
     id="path3517"
     style="color:#000000;clip-rule:nonzero;display:inline;overflow:visible;visibility:visible;opacity:1;isolation:auto;mix-blend-mode:normal;color-interpolation:sRGB;color-interpolation-filters:linearRGB;solid-color:#000000;solid-opacity:1;fill:url(#linearGradient3578);fill-opacity:1;fill-rule:nonzero;stroke-width:1;stroke-linecap:butt;stroke-linejoin:miter;stroke-miterlimit:4;stroke-dasharray:none;stroke-dashoffset:0;stroke-opacity:1;color-rendering:auto;image-rendering:auto;shape-rendering:auto;text-rendering:auto;enable-background:accumulate"
     inkscape:connector-curvature="0" /><path
     style="fill:#ffffff"
     inkscape:connector-curvature="0"
     d="m 72.792843,33.318743 c 3.434923,1.169336 7.16218,-0.657751 8.331516,-4.092674 1.169335,-3.434924 -0.657752,-7.162181 -4.092675,-8.331516 -3.434923,-1.169336 -7.16218,0.657751 -8.331516,4.092674 -1.169335,3.434924 0.657751,7.162181 4.092675,8.331516 z"
     id="path3461" /><line
     style="fill:none;stroke:#ffffff;stroke-width:4.38500834;stroke-miterlimit:10"
     stroke-miterlimit="10"
     x1="72.583237"
     y1="29.041058"
     x2="50.58511"
     y2="47.311928"
     id="line3463" /><path
     style="fill:#ffffff"
     inkscape:connector-curvature="0"
     d="m 57.96654,66.752129 c -0.292334,3.58109 2.338671,6.796763 5.992844,7.162181 3.654174,0.292333 6.796764,-2.338672 7.162181,-5.992845 0.292334,-3.581091 -2.338671,-6.796763 -5.992845,-7.162181 -3.654174,-0.292334 -6.869846,2.338671 -7.16218,5.992845 z"
     id="path3467" /><line
     style="fill:none;stroke:#ffffff;stroke-width:4.38500834;stroke-miterlimit:10"
     stroke-miterlimit="10"
     x1="64.47097"
     y1="67.3368"
     x2="50.58511"
     y2="47.311928"
     id="line3469" /><path
     id="path3471"
     d="m 45.103848,50.893015 c 1.973254,3.069506 6.065929,3.946508 9.062351,1.973254 3.069506,-1.973254 3.946508,-6.065928 1.973254,-9.062351 -1.973254,-3.069506 -6.065929,-3.946507 -9.062351,-1.973254 -3.069506,1.900171 -3.946508,5.992845 -1.973254,9.062351 z"
     inkscape:connector-curvature="0"
     style="fill:#ffffff" /><path
     style="fill:#ffffff"
     inkscape:connector-curvature="0"
     d="m 14.448872,45.331666 c -3.142589,-1.827087 -7.1621807,-0.803918 -8.9892675,2.265587 -1.8270869,3.14259 -0.8039182,7.162181 2.265588,8.989268 3.1425895,1.827087 7.1621805,0.803918 8.9892675,-2.265588 1.827087,-3.069506 0.803918,-7.089097 -2.265588,-8.989267 z"
     id="path3475" /><line
     style="fill:none;stroke:#ffffff;stroke-width:4.38500834;stroke-miterlimit:10"
     stroke-miterlimit="10"
     x1="13.385621"
     y1="50.746845"
     x2="50.58511"
     y2="47.311928"
     id="line3477" /><path
     id="rect3609"
     style="color:#000000;clip-rule:nonzero;display:inline;overflow:visible;visibility:visible;opacity:1;isolation:auto;mix-blend-mode:normal;color-interpolation:sRGB;color-interpolation-filters:linearRGB;solid-color:#000000;solid-opacity:1;fill:none;fill-opacity:1;fill-rule:nonzero;stroke:#ffffff;stroke-width:4.38500023;stroke-linecap:butt;stroke-linejoin:miter;stroke-miterlimit:10;stroke-dasharray:none;stroke-dashoffset:0;stroke-opacity:1;color-rendering:auto;image-rendering:auto;shape-rendering:auto;text-rendering:auto;enable-background:accumulate"
     d="M 43,74.914147 11.090462,74.890815 11.076492,43 C 11.062521,25.361417 25.361417,11.062521 43,11.085854 L 74.909538,11.109187 74.923508,43 C 74.937479,60.638583 60.638583,74.937479 43,74.914147 Z"
     inkscape:connector-curvature="0"
     sodipodi:nodetypes="ccccccc" /></svg>